<svg id="圖層_1" data-name="圖層 1" xmlns="http://www.w3.org/2000/svg" viewBox="0 0 17 17"><defs><style>.cls-1{fill:#a4c2f7;}.cls-2{fill:#e3e7f2;}.cls-3{fill:#428dff;}</style></defs><title>function</title><path class="cls-1" d="M14.37,14.09a2.13,2.13,0,0,0-1.19-1.91L10.64,10.9A1,1,0,0,1,10.1,10V9a2.34,2.34,0,0,0,.24-.31,5.77,5.77,0,0,0,.79-1.59.79.79,0,0,0,.57-.76V5.3a.78.78,0,0,0-.27-.59V3.17S11.75.77,8.5.77s-2.93,2.4-2.93,2.4V4.71a.78.78,0,0,0-.27.59V6.37A.8.8,0,0,0,5.67,7a5.33,5.33,0,0,0,1,2v1a1,1,0,0,1-.5.85l-2.38,1.3A2.13,2.13,0,0,0,2.63,14v.86c0,.74,2.63,1.33,5.87,1.33s5.87-.59,5.87-1.33Z"/><path class="cls-2" d="M13.57,14.09a2.13,2.13,0,0,0-1.19-1.91L9.84,10.9A1,1,0,0,1,9.3,10V9a2.34,2.34,0,0,0,.24-.31,5.77,5.77,0,0,0,.79-1.59.79.79,0,0,0,.57-.76V5.3a.78.78,0,0,0-.27-.59V3.17S11,.77,7.7.77c-1.8,0-2.13,2.4-2.13,2.4V4.71a.78.78,0,0,0-.27.59V6.37A.8.8,0,0,0,5.67,7a5.33,5.33,0,0,0,1,2v1a1,1,0,0,1-.5.85l-1.85,1.3c-.69.37-1.91,1.09-1.91,1.88v.86c0,.74,5.65,1.33,5.33,1.33,3.24,0,5.87-.59,5.87-1.33Z"/><path class="cls-3" d="M8.5,16.5c-2.12,0-6.13-.33-6.13-1.6V14a2.43,2.43,0,0,1,1.25-2.12L6,10.63A.71.71,0,0,0,6.37,10V9.13A5.68,5.68,0,0,1,5.43,7.2,1.09,1.09,0,0,1,5,6.37V5.3a1.06,1.06,0,0,1,.27-.7V3.18a2.39,2.39,0,0,1,.56-1.74A3.36,3.36,0,0,1,8.5.5a3.36,3.36,0,0,1,2.64.94,2.39,2.39,0,0,1,.56,1.74V4.6a1.06,1.06,0,0,1,.27.7V6.37a1.07,1.07,0,0,1-.62,1,6.47,6.47,0,0,1-.79,1.55l-.19.25V10a.7.7,0,0,0,.39.63l2.54,1.28a2.37,2.37,0,0,1,1.33,2.15v.81C14.63,16.17,10.62,16.5,8.5,16.5ZM8.5,1a2.87,2.87,0,0,0-2.24.76,1.88,1.88,0,0,0-.43,1.34V4.71a.3.3,0,0,1-.08.2.5.5,0,0,0-.18.39V6.37a.51.51,0,0,0,.24.44A.3.3,0,0,1,5.93,7a5.13,5.13,0,0,0,.91,1.88A.27.27,0,0,1,6.9,9v1a1.25,1.25,0,0,1-.65,1.09L3.88,12.39A1.87,1.87,0,0,0,2.9,14v.86c0,.36,2,1.07,5.6,1.07s5.6-.71,5.6-1.07v-.81a1.89,1.89,0,0,0-1-1.68l-2.55-1.27A1.25,1.25,0,0,1,9.83,10V9a.28.28,0,0,1,.07-.17,3.15,3.15,0,0,0,.22-.29,5.55,5.55,0,0,0,.76-1.52.28.28,0,0,1,.17-.18.51.51,0,0,0,.38-.5V5.3a.5.5,0,0,0-.18-.39.3.3,0,0,1-.08-.2V3.13a1.85,1.85,0,0,0-.43-1.34A2.9,2.9,0,0,0,8.5,1Z"/></svg>